PathFileType	4	(X/Y/Z)	D:\Share\Shared_Data\Ergonomics\Sit To Stand Pertubation\S0\Free STS.trc
DataRate	CameraRate	NumFrames	NumMarkers	Units	OrigDataRate	OrigDataStartFrame	OrigNumFrames	
100	100	13	18	m	100	2902	211
Frame#	Time	R_Toe			R_ASIS			R_Pelvis			V_Sacral			L_Pelvis			L_ASIS			Clavical			R_Acromium			L_Acromium			Sternum			Torso			R_Thigh_Med			R_Thigh_Lat			R_Thigh			R_Shank_Med			R_Shank_Lat			R_Shank			R_Heel			
		X1	Y1	Z1	X2	Y2	Z2	X3	Y3	Z3	X4	Y4	Z4	X5	Y5	Z5	X6	Y6	Z6	X7	Y7	Z7	X8	Y8	Z8	X9	Y9	Z9	X10	Y10	Z10	X11	Y11	Z11	X12	Y12	Z12	X13	Y13	Z13	X14	Y14	Z14	X15	Y15	Z15	X16	Y16	Z16	X17	Y17	Z17	X18	Y18	Z18	

2902	15.44	0.37834903	0.045139713	0.14287352	0.34915427	1.0074408	0.15818918	0.22667677	1.0300216	0.2020139	0.10578068	1.0384954	-0.02652997	0.24571217	1.0170054	-0.20766528	0.36137866	0.9926485	-0.16079514	0.38566544	1.4417996	-0.0053623872	0.30210574	1.501911	0.13760713	0.29182767	1.5116772	-0.15214062	0.41854532	1.3494683	-0.024364996	0.38742139	1.3977628	-0.13030725	0.29260556	0.49208896	0.047080387	0.28904044	0.51903448	0.17335068	0.37082083	0.64735187	0.10714311	0.25085065	0.10047141	0.10295612	0.19329689	0.090126717	0.19088785	0.23326984	0.31905811	0.2008324	0.1546418	0.045197147	0.14996165
2903	15.45	0.37830286	0.045150024	0.14300352	0.35077396	1.0078152	0.15817772	0.22817609	1.0299713	0.20192033	0.10738277	1.0379646	-0.026584801	0.24749664	1.0168885	-0.20773613	0.36309766	0.99297107	-0.16094348	0.38490302	1.4424753	-0.0053171272	0.30101633	1.5021771	0.13770821	0.290702	1.5119419	-0.15211006	0.41825565	1.3503177	-0.024354902	0.38682941	1.3984731	-0.13031363	0.29136453	0.49222134	0.046991425	0.28786151	0.51924426	0.17316959	0.37068362	0.64716016	0.10701102	0.25079506	0.10057065	0.10299687	0.19314621	0.090107338	0.19087268	0.23226938	0.31925116	0.20078754	0.15461826	0.04516534	0.14995529
2904	15.46	0.37825467	0.04516317	0.14313496	0.35233264	1.0081777	0.15817491	0.22962032	1.0299127	0.20183234	0.10892165	1.0374166	-0.026642998	0.24922002	1.0167525	-0.20780794	0.3647562	0.99327411	-0.16107455	0.38417023	1.4430881	-0.0052878213	0.29997116	1.5023903	0.1377892	0.28961176	1.5121554	-0.15209145	0.41797632	1.3511041	-0.024362066	0.38625552	1.3991252	-0.13033691	0.29010712	0.49235873	0.046913704	0.28667511	0.51946094	0.17301631	0.3705777	0.64699078	0.10687971	0.25072395	0.10067034	0.10304568	0.19299953	0.090088768	0.19086276	0.23125766	0.31944473	0.20075488	0.15459454	0.04513538	0.14994939
2905	15.47	0.3782066	0.045178379	0.14326486	0.35382022	1.0085256	0.15817801	0.23101521	1.0298495	0.20175108	0.11039133	1.0368503	-0.026704145	0.25086453	1.0165964	-0.20787927	0.36634207	0.99355536	-0.16118797	0.38347125	1.4436381	-0.0052753129	0.29897079	1.5025531	0.13785007	0.28856018	1.5123175	-0.15208664	0.41770871	1.351826	-0.024385815	0.38570013	1.3997155	-0.13037775	0.28884662	0.49249969	0.04684705	0.28549454	0.51968121	0.17288853	0.37049158	0.64683643	0.10674497	0.25063026	0.10076702	0.10310422	0.19285765	0.090071365	0.19085791	0.23025069	0.31963794	0.20073317	0.15457152	0.045106735	0.14994435
2906	15.48	0.37816068	0.045194557	0.14339056	0.35522906	1.008853	0.15818292	0.23236928	1.0297852	0.20167754	0.11178764	1.0362657	-0.026767015	0.25242168	1.0164208	-0.20795003	0.36784286	0.99380975	-0.16128554	0.38280954	1.444124	-0.0052804174	0.29801685	1.5026682	0.13789127	0.28755142	1.5124283	-0.15209711	0.41745355	1.3524802	-0.024425625	0.38516345	1.4002395	-0.13043654	0.28759955	0.49264182	0.04679237	0.28433643	0.51990106	0.17278265	0.37039774	0.6466875	0.10660355	0.25051501	0.10085886	0.10317225	0.19272166	0.090055611	0.19085727	0.22926511	0.31982993	0.20072076	0.15455043	0.04507896	0.14994019
2907	15.49	0.37811853	0.045210571	0.14351012	0.35655768	1.0091531	0.15818472	0.23368904	1.0297222	0.20161189	0.11310699	1.0356652	-0.02682984	0.25388733	1.0162275	-0.20802171	0.36924664	0.99403027	-0.16137086	0.38218753	1.4445446	-0.0053036265	0.297112	1.502739	0.13791396	0.28658954	1.5124891	-0.15212361	0.41721039	1.3530624	-0.024481188	0.38464557	1.400693	-0.13051321	0.28638354	0.49278241	0.046750099	0.28321832	0.52011591	0.17269456	0.37025677	0.64653278	0.10645325	0.25038519	0.1009455	0.10324785	0.19259242	0.090041946	0.1908597	0.22831622	0.32001965	0.20071556	0.15453218	0.045051994	0.14993665
2908	15.5	0.37808121	0.045225689	0.14362228	0.35780911	1.0094191	0.1581781	0.2349722	1.0296617	0.20155359	0.11434565	1.035056	-0.026890228	0.25525952	1.0160202	-0.20809741	0.37054257	0.99421057	-0.16144896	0.38160583	1.4448986	-0.0053446913	0.29625931	1.5027694	0.13792007	0.28567801	1.5125027	-0.15216637	0.41697769	1.3535696	-0.024552221	0.38414606	1.4010728	-0.13060686	0.28521362	0.49291919	0.046718666	0.28215741	0.52032098	0.17261983	0.37002737	0.64636005	0.1062933	0.25024986	0.10102724	0.10332812	0.19247093	0.090030655	0.19086392	0.22741667	0.32020551	0.2007155	0.15451701	0.045026348	0.1499332
2909	15.51	0.37804886	0.045239609	0.1437262	0.35898642	1.0096437	0.15815794	0.23620662	1.0296033	0.20150165	0.11549986	1.0344493	-0.026945185	0.2565376	1.0158047	-0.20818095	0.37172238	0.99434619	-0.16152559	0.38106369	1.4451866	-0.0054023514	0.29546222	1.5027642	0.13791235	0.28481921	1.5124739	-0.15222462	0.41675369	1.3540005	-0.024638205	0.38366431	1.4013783	-0.13071571	0.28410135	0.49305057	0.04669426	0.28116879	0.52051111	0.17255423	0.36968637	0.64616119	0.10612386	0.2501176	0.10110456	0.10340967	0.19235802	0.090021736	0.19086856	0.22657614	0.32038455	0.20071872	0.15450464	0.045002678	0.1499295
2910	15.52	0.37802115	0.045252083	0.14382132	0.36009085	1.009821	0.15811958	0.23737709	1.0295452	0.20145479	0.11656612	1.0338616	-0.026991404	0.25771954	1.015589	-0.20827565	0.37278152	0.99443701	-0.16160725	0.38056033	1.4454116	-0.0054743433	0.29472415	1.5027285	0.13789407	0.28401382	1.512408	-0.15229622	0.41653665	1.3543561	-0.02473818	0.38319992	1.4016125	-0.13083736	0.2830553	0.49317566	0.046671574	0.28026471	0.5206814	0.17249368	0.36924936	0.64593835	0.10594437	0.24999501	0.10117768	0.10348894	0.1922541	0.090014908	0.19087228	0.22580147	0.32055295	0.20072333	0.15449435	0.044981472	0.14992545
2911	15.53	0.37799704	0.045262775	0.14390706	0.36112271	1.0099471	0.15805922	0.238472	1.0294857	0.20141132	0.11754163	1.033311	-0.027025681	0.25879697	1.0153811	-0.20838324	0.37372018	0.994487	-0.16170073	0.3800961	1.4455801	-0.0055576372	0.29404825	1.5026685	0.13786877	0.2832608	1.5123116	-0.15237755	0.41632532	1.3546404	-0.024850691	0.38275305	1.401782	-0.13096873	0.28208264	0.49329333	0.046644882	0.27945456	0.52082831	0.17243456	0.36876721	0.6457027	0.10575243	0.24988632	0.10124653	0.10356245	0.1921595	0.090009621	0.19087401	0.22509772	0.32070667	0.20072722	0.15448531	0.044963066	0.14992131
2912	15.54	0.37797577	0.04527145	0.14398277	0.36208249	1.0100204	0.15797443	0.23948492	1.0294227	0.2013694	0.1184248	1.0328173	-0.027045448	0.25975189	1.0151888	-0.20850337	0.37454242	0.99450299	-0.16181218	0.37967297	1.4457012	-0.005648963	0.29343732	1.5025907	0.13783971	0.28255807	1.5121925	-0.1524641	0.41611862	1.3548601	-0.024973888	0.38232449	1.4018965	-0.13110661	0.28118988	0.49340125	0.046609344	0.27874493	0.52095032	0.17237369	0.36829767	0.6454679	0.10554406	0.24979355	0.1013108	0.10362735	0.19207489	0.090005493	0.19087314	0.22446982	0.32084271	0.20072835	0.15447673	0.04494775	0.14991769
2913	15.55	0.37795697	0.045278042	0.14404765	0.36297159	1.0100436	0.15786438	0.24041342	1.0293547	0.20132707	0.11921572	1.0323975	-0.02704924	0.26056427	1.0150186	-0.20863326	0.37525452	0.99449396	-0.16194629	0.37929236	1.4457853	-0.005745564	0.29289301	1.5025026	0.13780936	0.28190338	1.5120594	-0.15255118	0.41591577	1.3550248	-0.025105825	0.38191556	1.401968	-0.13124773	0.28038281	0.49349588	0.046561928	0.27813995	0.5210473	0.1723082	0.36788199	0.6452431	0.10531436	0.2497171	0.10136987	0.10368145	0.19200154	0.090002449	0.19086945	0.22392322	0.32095956	0.20072479	0.15446857	0.044935661	0.14991476
2914	15.56	0.37794067	0.045282696	0.14410095	0.36379272	1.0100226	0.15772981	0.24125774	1.0292805	0.20128226	0.11991644	1.0320638	-0.027037045	0.26122473	1.0148753	-0.20876831	0.37586404	0.99446936	-0.16210567	0.37895346	1.4458428	-0.0058455458	0.29241589	1.502412	0.13777934	0.28129462	1.5119224	-0.15263429	0.41571704	1.355146	-0.025244617	0.38152771	1.4020099	-0.13138893	0.27966718	0.49357394	0.046501347	0.27764197	0.52112061	0.17223535	0.36754092	0.64503442	0.10505847	0.24965643	0.10142288	0.10372317	0.19194078	0.090000854	0.19086313	0.22346342	0.32105707	0.20071457	0.1544613	0.044926807	0.14991217
